# AST/ASF file generated using VICON BodyLanguage
# -----------------------------------------------
:version 1.10
:name VICON
:units
  mass 1.0
  length 0.45
  angle deg
:documentation
   .ast/.asf automatically generated from VICON data using
   VICON BodyBuilder and BodyLanguage model FoxedUp or BRILLIANT.MOD
:root
   order TX TY TZ RX RY RZ
   axis XYZ
   position 0 0 0  
   orientation 0 0 0 
:bonedata
  begin
     id 1 
     name lhipjoint
     direction 0.541323 -0.757556 0.364798 
     length 2.47576 
     axis 0 0 0  XYZ
  end
  begin
     id 2 
     name lfemur
     direction 0.34202 -0.939693 0  
     length 7.46493  
     axis 0 0 20  XYZ
    dof rx ry rz
    limits (-160.0 20.0)
           (-70.0 70.0)
           (-60.0 70.0)
  end
  begin
     id 3 
     name ltibia
     direction 0.34202 -0.939693 0   
     length 7.73805   
     axis 0 0 20   XYZ
    dof rx
    limits (-10.0 170.0)
  end
  begin
     id 4 
     name lfoot
     direction 0.107174 -0.294458 0.949636   
     length 2.25864   
     axis -90 7.62852e-016 20   XYZ
    dof rx rz
    limits (-45.0 90.0)
           (-70.0 20.0)
  end
  begin
     id 5 
     name ltoes
     direction 1.53606e-011 -4.21934e-011 1   
     length 1.12451   
     axis -90 7.62852e-016 20   XYZ
    dof rx
    limits (-90.0 20.0)
  end
  begin
     id 6 
     name rhipjoint
     direction -0.524745 -0.766967 0.36933   
     length 2.44538  
     axis 0 0 0  XYZ 
  end
  begin
     id 7 
     name rfemur
     direction -0.34202 -0.939693 0   
     length 7.61604   
     axis 0 0 -20   XYZ
    dof rx ry rz
    limits (-160.0 20.0)
           (-70.0 70.0)
           (-70.0 60.0)
  end
  begin
     id 8 
     name rtibia
     direction -0.34202 -0.939693 0   
     length 7.61056   
     axis 0 0 -20   XYZ
    dof rx
    limits (-10.0 170.0)
 end
 begin
     id 9 
     name rfoot
     direction -0.12616 -0.346623 0.929482   
     length 2.46372  
     axis -90 -7.62852e-016 -20   XYZ
    dof rx rz
    limits (-45.0 90.0)
           (-20.0 70.0)
  end
  begin
     id 10 
     name rtoes
     direction -1.53531e-011 -4.22004e-011 1   
     length 1.21611   
     axis -90 -7.62852e-016 -20   XYZ
    dof rx
    limits (-90.0 20.0)
  end
  begin
     id 11 
     name lowerback
     direction -0.000778023 0.997293 -0.0735223   
     length 2.06139   
     axis 0 0 0   XYZ
    dof rx ry rz
    limits (-20.0 45.0)
           (-30.0 30.0)
           (-30.0 30.0)
  end
  begin
     id 12 
     name upperback
     direction 0.0222598 0.999722 -0.0078355   
     length 2.06383   
     axis 0 0 0   XYZ
    dof rx ry rz
    limits (-20.0 45.0)
           (-30.0 30.0)
           (-30.0 30.0)
  end
  begin
     id 13 
     name thorax
     direction 0.0219654 0.999405 0.0265994   
     length 2.07163   
     axis 0 0 0   XYZ
    dof rx ry rz
    limits (-20.0 45.0)
           (-30.0 30.0)
           (-30.0 30.0)
  end
  begin
     id 14 
     name lowerneck
     direction 0.0213282 0.988147 0.15202   
     length 1.75969   
     axis 0 0 0   XYZ
    dof rx ry rz
    limits (-20.0 45.0)
           (-30.0 30.0)
           (-30.0 30.0)
  end
  begin
     id 15 
     name upperneck
     direction -0.0546456 0.982624 -0.177379   
     length 1.79244   
     axis 0 0 0   XYZ
    dof rx ry rz
    limits (-20.0 45.0)
           (-30.0 30.0)
           (-30.0 30.0)
  end
  begin
     id 16
     name head
     direction -0.0199987 0.996855 -0.076686  
     length 1.80555  
     axis 0 0 0   XYZ
    dof rx ry rz
    limits (-20.0 45.0)
           (-30.0 30.0)
           (-30.0 30.0)
  end
  begin
     id 17 
     name lclavicle
     direction 0.929565 0.363219 -0.063096  
     length 3.55722  
     axis 0 0 0   XYZ
    dof ry rz
    limits (-20.0 10.0)
           (0.0 20.0)
  end
  begin
     id 18 
     name lhumerus
     direction 1 -4.48993e-011 -2.36203e-027   
     length 4.92785   
     axis 180 -30 -90   XYZ
    dof rx ry rz
    limits (-60.0 90.0)
           (-90.0 90.0)
           (-90.0 90.0)
  end
  begin
     id 19
     name lradius
     direction 1 -4.48947e-011 2.02997e-027   
     length 3.44052   
     axis 180 -30 -90   XYZ
    dof rx
    limits (-10.0 170.0)
  end
  begin
     id 20
     name lwrist
     direction 1 -4.48962e-011 1.45991e-027   
     length 1.72026   
     axis 1.49639e-024 90 90   XYZ
    dof ry
    limits (-180.0 0.0)
 end
  begin
     id 21 
     name lhand
     direction 1 -4.48984e-011 2.91906e-027   
     length 0.654326   
     axis -1.863e-015 90 90   XYZ
    dof rx rz
    limits (-90.0 90.0)
           (-45.0 45.0)
  end
  begin
     id 22 
     name lfingers
     direction 1 -4.48961e-011 5.83968e-027   
     length 0.527534   
     axis -3.72598e-015 90 90   XYZ
    dof rx
    limits (0.0 90.0)
  end
  begin
     id 23
     name lthumb
     direction 0.707107 -6.34963e-011 0.707107   
     length 0.757437   
     axis -90 45 -6.68868e-015   XYZ
    dof rx rz
    limits (-45.0 45.0)
           (-45.0 45.0)
  end
  begin
     id 24 
     name rclavicle
     direction -0.902944 0.422599 -0.0781198   
     length 3.54432  
     axis 0 0 0   XYZ 
    dof ry rz
    limits (-10.0 20.0)
           (-20.0 0.0)
  end
  begin
     id 25 
     name rhumerus
     direction -1 -4.48953e-011 -4.75835e-028  
     length 5.09181   
     axis 180 30 90   XYZ
    dof rx ry rz
    limits (-90.0 60.0)
           (-90.0 90.0)
           (-90.0 90.0)
  end
  begin
     id 26 
     name rradius
     direction -1 -4.48986e-011 -3.25889e-027   
     length 3.49865   
     axis 180 30 90   XYZ
    dof rx
    limits (-10.0 170.0)
  end
  begin
     id 27 
     name rwrist
     direction -1 -4.48963e-011 1.45989e-027   
     length 1.74933   
     axis 1.49639e-024 -90 -90   XYZ
    dof ry
    limits (-180.0 0.0)
  end
  begin
     id 28
     name rhand
     direction -1 -4.49003e-011 2.91844e-027   
     length 0.66641   
     axis -1.863e-015 -90 -90   XYZ
    dof rx rz
    limits (-90.0 90.0)
           (-45.0 45.0)
  end
  begin
     id 29
     name rfingers
     direction -1 -4.48973e-011 5.83886e-027   
     length 0.537277   
     axis -3.72598e-015 -90 -90   XYZ
    dof rx
    limits (0.0 90.0)
  end
  begin
     id 30
     name rthumb
     direction -0.707107 -6.34976e-011 0.707107   
     length 0.771425   
     axis -90 -45 6.68868e-015   XYZ
    dof rx rz
    limits (-45.0 45.0)
           (-45.0 45.0)
  end
:hierarchy
  begin
    root lhipjoint rhipjoint lowerback
    lhipjoint lfemur
    lfemur ltibia
    ltibia lfoot
    lfoot ltoes
    rhipjoint rfemur
    rfemur rtibia
    rtibia rfoot
    rfoot rtoes
    lowerback upperback
    upperback thorax
    thorax lowerneck lclavicle rclavicle
    lowerneck upperneck
    upperneck head
    lclavicle lhumerus
    lhumerus lradius
    lradius lwrist
    lwrist lhand lthumb
    lhand lfingers
    rclavicle rhumerus
    rhumerus rradius
    rradius rwrist
    rwrist rhand rthumb
    rhand rfingers
  end

#!OML:ASF H:\LiuWeirdWalks\Patient Classification 1\Patient 1\Session 1\male.ASF
:FULLY-SPECIFIED
:DEGREES
204
root 2.10904 17.8857 -30.1041 -0.855868 1.84477 3.05063
lowerback 5.47658 -5.43853 -6.50603
upperback 0.330057 -7.57655 3.44695
thorax -1.39909 -3.76126 7.65654
lowerneck -19.0119 1.39774 3.56107
upperneck 24.837 2.62141 -6.4122
head 11.3643 0.690088 -2.56436
rclavicle -5.4467e-014 -1.66979e-014
rhumerus -44.426 -7.86002 -72.7986
rradius 27.3504
rwrist -6.04159
rhand -17.3409 -4.16966
rfingers 7.12502
rthumb 8.90637 -33.9617
lclavicle -5.4467e-014 -1.66979e-014
lhumerus -26.1008 10.1229 84.698
lradius 32.9426
lwrist 13.8138
lhand -10.4284 -0.123194
lfingers 7.12502
lthumb 15.5711 29.27
rfemur -32.377 0.0985212 10.3188
rtibia 27.3593
rfoot -16.5404 -20.5267
rtoes -10.1511
lfemur 7.67518 2.85022 -29.2827
ltibia 10.5572
lfoot -7.75305 12.799
ltoes -9.38092
205
root 2.10445 17.8847 -30.0748 -0.887004 1.94997 3.12132
lowerback 5.49177 -5.45206 -6.58649
upperback 0.331073 -7.60112 3.40849
thorax -1.39702 -3.77313 7.663
lowerneck -18.9446 1.33169 3.51356
upperneck 24.8606 2.52878 -6.35595
head 11.3527 0.651561 -2.54981
rclavicle 4.42296e-014 -1.74931e-014
rhumerus -44.5272 -7.86517 -72.8337
rradius 27.3695
rwrist -6.06221
rhand -17.2922 -4.16674
rfingers 7.12502
rthumb 8.9534 -33.9568
lclavicle 4.42296e-014 -1.74931e-014
lhumerus -26.0494 9.8626 84.8027
lradius 33.0507
lwrist 14.0489
lhand -10.6187 0.257307
lfingers 7.12502
lthumb 15.3878 29.6647
rfemur -32.3807 0.128366 10.2264
rtibia 27.2262
rfoot -16.4376 -20.5851
rtoes -10.3686
lfemur 7.94231 2.92344 -29.2985
ltibia 10.3094
lfoot -7.72304 12.6054
ltoes -9.49251
206
root 2.09954 17.8834 -30.0448 -0.919969 2.06376 3.20931
lowerback 5.5096 -5.46459 -6.68554
upperback 0.331473 -7.62578 3.36593
thorax -1.39517 -3.7849 7.67583
lowerneck -18.8973 1.27536 3.49214
upperneck 24.8851 2.44448 -6.31081
head 11.3464 0.617599 -2.54262
rclavicle -3.45885e-014 4.77083e-015
rhumerus -44.6134 -7.91694 -72.8375
rradius 27.3553
rwrist -6.00558
rhand -17.204 -4.09906
rfingers 7.12502
rthumb 9.03848 -33.8854
lclavicle -3.45885e-014 4.77083e-015
lhumerus -26.0026 9.56215 84.9268
lradius 33.1846
lwrist 14.4671
lhand -10.953 0.73836
lfingers 7.12502
lthumb 15.0657 30.1701
rfemur -32.3657 0.146754 10.1132
rtibia 27.0885
rfoot -16.3061 -20.6409
rtoes -10.6572
lfemur 8.22252 3.00375 -29.3278
ltibia 10.0495
lfoot -7.69247 12.3942
ltoes -9.6043
207
root 2.09411 17.8817 -30.0145 -0.944773 2.18315 3.29243
lowerback 5.51749 -5.48428 -6.78128
upperback 0.331434 -7.65921 3.32863
thorax -1.38632 -3.80145 7.69131
lowerneck -18.8565 1.22754 3.46559
upperneck 24.9319 2.37833 -6.27815
head 11.3512 0.589409 -2.53696
rclavicle -1.05157e-013 6.36111e-015
rhumerus -44.6783 -7.95248 -72.848
rradius 27.3376
rwrist -5.96897
rhand -17.1153 -4.03806
rfingers 7.12502
rthumb 9.12406 -33.8207
lclavicle -1.05157e-013 6.36111e-015
lhumerus -25.9548 9.28383 85.0419
lradius 33.3135
lwrist 14.9099
lhand -11.3275 1.14128
lfingers 7.12502
lthumb 14.705 30.5998
rfemur -32.3455 0.160986 10.0048
rtibia 26.9426
rfoot -16.2055 -20.714
rtoes -10.9336
lfemur 8.4868 2.89323 -29.3765
ltibia 9.80233
lfoot -7.58578 12.3552
ltoes -9.73489
208
root 2.08864 17.8797 -29.9837 -0.961928 2.31124 3.37054
lowerback 5.51198 -5.51206 -6.86296
upperback 0.333032 -7.70174 3.29142
thorax -1.36841 -3.82311 7.69747
lowerneck -18.8136 1.20414 3.47393
upperneck 24.9272 2.33881 -6.26364
head 11.3384 0.574886 -2.5387
rclavicle -8.39368e-014 2.94201e-014
rhumerus -44.7187 -8.00866 -72.8451
rradius 27.2942
rwrist -5.8863
rhand -17.025 -3.93985
rfingers 7.12502
rthumb 9.21122 -33.7187
lclavicle -8.39368e-014 2.94201e-014
lhumerus -25.8955 9.06 85.1222
lradius 33.4138
lwrist 15.1476
lhand -11.5782 1.51863
lfingers 7.12502
lthumb 14.4635 30.9946
rfemur -32.3171 0.163691 9.90144
rtibia 26.7905
rfoot -16.143 -20.7907
rtoes -11.0725
lfemur 8.73447 2.77356 -29.4257
ltibia 9.5842
lfoot -7.47835 12.3216
ltoes -9.88184
209
root 2.0832 17.8776 -29.9526 -0.962168 2.44704 3.4386
lowerback 5.49242 -5.76045 -6.98444
upperback 0.290163 -8.03899 3.42974
thorax -1.30425 -3.99492 7.91671
lowerneck -18.7578 1.59156 3.61521
upperneck 24.8429 2.95707 -6.6652
head 11.343 0.818399 -2.61577
rclavicle 3.2054e-014 1.03368e-014
rhumerus -44.5136 -7.25135 -72.919
rradius 27.2134
rwrist -5.88828
rhand -16.9629 -3.87634
rfingers 7.12502
rthumb 9.27115 -33.6525
lclavicle 3.2054e-014 1.03368e-014
lhumerus -26.0081 9.70136 85.1437
lradius 33.5324
lwrist 15.1418
lhand -11.7162 1.72123
lfingers 7.12502
lthumb 14.3305 31.2067
rfemur -32.2886 0.159411 9.80728
rtibia 26.6278
rfoot -16.0832 -20.8697
rtoes -11.1822
lfemur 8.93394 2.64364 -29.4679
ltibia 9.42783
lfoot -7.37819 12.2982
ltoes -10.0278
